<svg xmlns="http://www.w3.org/2000/svg" width="280" height="180" viewBox="0 0 280 180" font-family="sans-serif" font-size="9">
<rect x="0" y="0" width="280" height="180" fill="white"/>
<rect x="32" y="10" width="158" height="146" fill="none" stroke="#888" stroke-width="1"/>
<line x1="32" y1="46.5" x2="190" y2="46.5" stroke="#eee"/>
<line x1="32" y1="83.0" x2="190" y2="83.0" stroke="#eee"/>
<line x1="32" y1="119.5" x2="190" y2="119.5" stroke="#eee"/>
<line x1="71.5" y1="10" x2="71.5" y2="156" stroke="#eee"/>
<line x1="111.0" y1="10" x2="111.0" y2="156" stroke="#eee"/>
<line x1="150.5" y1="10" x2="150.5" y2="156" stroke="#eee"/>
<text x="26" y="159.0" text-anchor="end">0</text>
<text x="26" y="86.0" text-anchor="end">0.5</text>
<text x="26" y="13.0" text-anchor="end">1</text>
<text x="32.0" y="167" text-anchor="middle">0</text>
<text x="111.0" y="167" text-anchor="middle">0.5</text>
<text x="190.0" y="167" text-anchor="middle">1</text>
<text x="111.0" y="176" text-anchor="middle">normalized time</text>
<text x="10" y="83.0" text-anchor="middle" transform="rotate(-90 10 83.0)">amplitude</text>
<path d="M 32.00,156.00 L 32.79,154.85 L 33.58,153.71 L 34.37,152.56 L 35.16,151.41 L 35.95,150.27 L 36.74,149.12 L 37.53,147.98 L 38.32,146.83 L 39.11,145.69 L 39.90,144.54 L 40.69,143.40 L 41.48,142.26 L 42.27,141.12 L 43.06,139.98 L 43.85,138.84 L 44.64,137.70 L 45.43,136.56 L 46.22,135.43 L 47.01,134.29 L 47.80,133.16 L 48.59,132.03 L 49.38,130.90 L 50.17,129.77 L 50.96,128.64 L 51.75,127.52 L 52.54,126.39 L 53.33,125.27 L 54.12,124.15 L 54.91,123.03 L 55.70,121.92 L 56.49,120.80 L 57.28,119.69 L 58.07,118.58 L 58.86,117.47 L 59.65,116.37 L 60.44,115.27 L 61.23,114.17 L 62.02,113.07 L 62.81,111.98 L 63.60,110.88 L 64.39,109.79 L 65.18,108.71 L 65.97,107.62 L 66.76,106.54 L 67.55,105.47 L 68.34,104.39 L 69.13,103.32 L 69.92,102.25 L 70.71,101.19 L 71.50,100.13 L 72.29,99.07 L 73.08,98.02 L 73.87,96.97 L 74.66,95.92 L 75.45,94.88 L 76.24,93.84 L 77.03,92.80 L 77.82,91.77 L 78.61,90.74 L 79.40,89.72 L 80.19,88.70 L 80.98,87.68 L 81.77,86.67 L 82.56,85.66 L 83.35,84.66 L 84.14,83.66 L 84.93,82.67 L 85.72,81.68 L 86.51,80.70 L 87.30,79.72 L 88.09,78.74 L 88.88,77.77 L 89.67,76.80 L 90.46,75.84 L 91.25,74.89 L 92.04,73.94 L 92.83,72.99 L 93.62,72.05 L 94.41,71.11 L 95.20,70.18 L 95.99,69.26 L 96.78,68.34 L 97.57,67.42 L 98.36,66.52 L 99.15,65.61 L 99.94,64.71 L 100.73,63.82 L 101.52,62.94 L 102.31,62.06 L 103.10,61.18 L 103.89,60.31 L 104.68,59.45 L 105.47,58.59 L 106.26,57.74 L 107.05,56.90 L 107.84,56.06 L 108.63,55.22 L 109.42,54.40 L 110.21,53.58 L 111.00,52.76 L 111.79,51.95 L 112.58,51.15 L 113.37,50.36 L 114.16,49.57 L 114.95,48.79 L 115.74,48.01 L 116.53,47.25 L 117.32,46.48 L 118.11,45.73 L 118.90,44.98 L 119.69,44.24 L 120.48,43.51 L 121.27,42.78 L 122.06,42.06 L 122.85,41.34 L 123.64,40.64 L 124.43,39.94 L 125.22,39.25 L 126.01,38.56 L 126.80,37.88 L 127.59,37.21 L 128.38,36.55 L 129.17,35.89 L 129.96,35.25 L 130.75,34.61 L 131.54,33.97 L 132.33,33.35 L 133.12,32.73 L 133.91,32.12 L 134.70,31.51 L 135.49,30.92 L 136.28,30.33 L 137.07,29.75 L 137.86,29.18 L 138.65,28.62 L 139.44,28.06 L 140.23,27.51 L 141.02,26.97 L 141.81,26.44 L 142.60,25.91 L 143.39,25.40 L 144.18,24.89 L 144.97,24.39 L 145.76,23.90 L 146.55,23.41 L 147.34,22.94 L 148.13,22.47 L 148.92,22.01 L 149.71,21.56 L 150.50,21.11 L 151.29,20.68 L 152.08,20.25 L 152.87,19.83 L 153.66,19.43 L 154.45,19.02 L 155.24,18.63 L 156.03,18.25 L 156.82,17.87 L 157.61,17.50 L 158.40,17.15 L 159.19,16.80 L 159.98,16.45 L 160.77,16.12 L 161.56,15.80 L 162.35,15.48 L 163.14,15.17 L 163.93,14.88 L 164.72,14.59 L 165.51,14.31 L 166.30,14.03 L 167.09,13.77 L 167.88,13.52 L 168.67,13.27 L 169.46,13.03 L 170.25,12.81 L 171.04,12.59 L 171.83,12.38 L 172.62,12.17 L 173.41,11.98 L 174.20,11.80 L 174.99,11.62 L 175.78,11.46 L 176.57,11.30 L 177.36,11.15 L 178.15,11.01 L 178.94,10.88 L 179.73,10.76 L 180.52,10.65 L 181.31,10.54 L 182.10,10.45 L 182.89,10.36 L 183.68,10.29 L 184.47,10.22 L 185.26,10.16 L 186.05,10.11 L 186.84,10.07 L 187.63,10.04 L 188.42,10.02 L 189.21,10.00 L 190.00,10.00" fill="none" stroke="#1f77b4" stroke-width="1.5"/>
<path d="M 32.00,156.00 L 32.79,155.99 L 33.58,155.96 L 34.37,155.92 L 35.16,155.86 L 35.95,155.77 L 36.74,155.68 L 37.53,155.56 L 38.32,155.42 L 39.11,155.27 L 39.90,155.10 L 40.69,154.91 L 41.48,154.71 L 42.27,154.48 L 43.06,154.24 L 43.85,153.98 L 44.64,153.71 L 45.43,153.41 L 46.22,153.10 L 47.01,152.77 L 47.80,152.43 L 48.59,152.06 L 49.38,151.68 L 50.17,151.29 L 50.96,150.87 L 51.75,150.44 L 52.54,150.00 L 53.33,149.53 L 54.12,149.05 L 54.91,148.56 L 55.70,148.04 L 56.49,147.51 L 57.28,146.97 L 58.07,146.41 L 58.86,145.83 L 59.65,145.24 L 60.44,144.64 L 61.23,144.01 L 62.02,143.38 L 62.81,142.72 L 63.60,142.06 L 64.39,141.38 L 65.18,140.68 L 65.97,139.97 L 66.76,139.25 L 67.55,138.51 L 68.34,137.76 L 69.13,136.99 L 69.92,136.21 L 70.71,135.42 L 71.50,134.62 L 72.29,133.80 L 73.08,132.97 L 73.87,132.13 L 74.66,131.28 L 75.45,130.41 L 76.24,129.53 L 77.03,128.64 L 77.82,127.74 L 78.61,126.83 L 79.40,125.91 L 80.19,124.98 L 80.98,124.03 L 81.77,123.08 L 82.56,122.12 L 83.35,121.14 L 84.14,120.16 L 84.93,119.17 L 85.72,118.17 L 86.51,117.16 L 87.30,116.14 L 88.09,115.12 L 88.88,114.08 L 89.67,113.04 L 90.46,111.99 L 91.25,110.94 L 92.04,109.87 L 92.83,108.80 L 93.62,107.73 L 94.41,106.65 L 95.20,105.56 L 95.99,104.46 L 96.78,103.37 L 97.57,102.26 L 98.36,101.15 L 99.15,100.04 L 99.94,98.92 L 100.73,97.80 L 101.52,96.68 L 102.31,95.55 L 103.10,94.42 L 103.89,93.29 L 104.68,92.15 L 105.47,91.01 L 106.26,89.87 L 107.05,88.73 L 107.84,87.58 L 108.63,86.44 L 109.42,85.29 L 110.21,84.15 L 111.00,83.00 L 111.79,81.85 L 112.58,80.71 L 113.37,79.56 L 114.16,78.42 L 114.95,77.27 L 115.74,76.13 L 116.53,74.99 L 117.32,73.85 L 118.11,72.71 L 118.90,71.58 L 119.69,70.45 L 120.48,69.32 L 121.27,68.20 L 122.06,67.08 L 122.85,65.96 L 123.64,64.85 L 124.43,63.74 L 125.22,62.63 L 126.01,61.54 L 126.80,60.44 L 127.59,59.35 L 128.38,58.27 L 129.17,57.20 L 129.96,56.13 L 130.75,55.06 L 131.54,54.01 L 132.33,52.96 L 133.12,51.92 L 133.91,50.88 L 134.70,49.86 L 135.49,48.84 L 136.28,47.83 L 137.07,46.83 L 137.86,45.84 L 138.65,44.86 L 139.44,43.88 L 140.23,42.92 L 141.02,41.97 L 141.81,41.02 L 142.60,40.09 L 143.39,39.17 L 144.18,38.26 L 144.97,37.36 L 145.76,36.47 L 146.55,35.59 L 147.34,34.72 L 148.13,33.87 L 148.92,33.03 L 149.71,32.20 L 150.50,31.38 L 151.29,30.58 L 152.08,29.79 L 152.87,29.01 L 153.66,28.24 L 154.45,27.49 L 155.24,26.75 L 156.03,26.03 L 156.82,25.32 L 157.61,24.62 L 158.40,23.94 L 159.19,23.28 L 159.98,22.62 L 160.77,21.99 L 161.56,21.36 L 162.35,20.76 L 163.14,20.17 L 163.93,19.59 L 164.72,19.03 L 165.51,18.49 L 166.30,17.96 L 167.09,17.44 L 167.88,16.95 L 168.67,16.47 L 169.46,16.00 L 170.25,15.56 L 171.04,15.13 L 171.83,14.71 L 172.62,14.32 L 173.41,13.94 L 174.20,13.57 L 174.99,13.23 L 175.78,12.90 L 176.57,12.59 L 177.36,12.29 L 178.15,12.02 L 178.94,11.76 L 179.73,11.52 L 180.52,11.29 L 181.31,11.09 L 182.10,10.90 L 182.89,10.73 L 183.68,10.58 L 184.47,10.44 L 185.26,10.32 L 186.05,10.23 L 186.84,10.14 L 187.63,10.08 L 188.42,10.04 L 189.21,10.01 L 190.00,10.00" fill="none" stroke="#d62728" stroke-width="1.5"/>
<path d="M 32.00,156.00 L 32.79,155.27 L 33.58,154.54 L 34.37,153.81 L 35.16,153.08 L 35.95,152.35 L 36.74,151.62 L 37.53,150.89 L 38.32,150.16 L 39.11,149.43 L 39.90,148.70 L 40.69,147.97 L 41.48,147.24 L 42.27,146.51 L 43.06,145.78 L 43.85,145.05 L 44.64,144.32 L 45.43,143.59 L 46.22,142.86 L 47.01,142.13 L 47.80,141.40 L 48.59,140.67 L 49.38,139.94 L 50.17,139.21 L 50.96,138.48 L 51.75,137.75 L 52.54,137.02 L 53.33,136.29 L 54.12,135.56 L 54.91,134.83 L 55.70,134.10 L 56.49,133.37 L 57.28,132.64 L 58.07,131.91 L 58.86,131.18 L 59.65,130.45 L 60.44,129.72 L 61.23,128.99 L 62.02,128.26 L 62.81,127.53 L 63.60,126.80 L 64.39,126.07 L 65.18,125.34 L 65.97,124.61 L 66.76,123.88 L 67.55,123.15 L 68.34,122.42 L 69.13,121.69 L 69.92,120.96 L 70.71,120.23 L 71.50,119.50 L 72.29,118.77 L 73.08,118.04 L 73.87,117.31 L 74.66,116.58 L 75.45,115.85 L 76.24,115.12 L 77.03,114.39 L 77.82,113.66 L 78.61,112.93 L 79.40,112.20 L 80.19,111.47 L 80.98,110.74 L 81.77,110.01 L 82.56,109.28 L 83.35,108.55 L 84.14,107.82 L 84.93,107.09 L 85.72,106.36 L 86.51,105.63 L 87.30,104.90 L 88.09,104.17 L 88.88,103.44 L 89.67,102.71 L 90.46,101.98 L 91.25,101.25 L 92.04,100.52 L 92.83,99.79 L 93.62,99.06 L 94.41,98.33 L 95.20,97.60 L 95.99,96.87 L 96.78,96.14 L 97.57,95.41 L 98.36,94.68 L 99.15,93.95 L 99.94,93.22 L 100.73,92.49 L 101.52,91.76 L 102.31,91.03 L 103.10,90.30 L 103.89,89.57 L 104.68,88.84 L 105.47,88.11 L 106.26,87.38 L 107.05,86.65 L 107.84,85.92 L 108.63,85.19 L 109.42,84.46 L 110.21,83.73 L 111.00,83.00 L 111.79,82.27 L 112.58,81.54 L 113.37,80.81 L 114.16,80.08 L 114.95,79.35 L 115.74,78.62 L 116.53,77.89 L 117.32,77.16 L 118.11,76.43 L 118.90,75.70 L 119.69,74.97 L 120.48,74.24 L 121.27,73.51 L 122.06,72.78 L 122.85,72.05 L 123.64,71.32 L 124.43,70.59 L 125.22,69.86 L 126.01,69.13 L 126.80,68.40 L 127.59,67.67 L 128.38,66.94 L 129.17,66.21 L 129.96,65.48 L 130.75,64.75 L 131.54,64.02 L 132.33,63.29 L 133.12,62.56 L 133.91,61.83 L 134.70,61.10 L 135.49,60.37 L 136.28,59.64 L 137.07,58.91 L 137.86,58.18 L 138.65,57.45 L 139.44,56.72 L 140.23,55.99 L 141.02,55.26 L 141.81,54.53 L 142.60,53.80 L 143.39,53.07 L 144.18,52.34 L 144.97,51.61 L 145.76,50.88 L 146.55,50.15 L 147.34,49.42 L 148.13,48.69 L 148.92,47.96 L 149.71,47.23 L 150.50,46.50 L 151.29,45.77 L 152.08,45.04 L 152.87,44.31 L 153.66,43.58 L 154.45,42.85 L 155.24,42.12 L 156.03,41.39 L 156.82,40.66 L 157.61,39.93 L 158.40,39.20 L 159.19,38.47 L 159.98,37.74 L 160.77,37.01 L 161.56,36.28 L 162.35,35.55 L 163.14,34.82 L 163.93,34.09 L 164.72,33.36 L 165.51,32.63 L 166.30,31.90 L 167.09,31.17 L 167.88,30.44 L 168.67,29.71 L 169.46,28.98 L 170.25,28.25 L 171.04,27.52 L 171.83,26.79 L 172.62,26.06 L 173.41,25.33 L 174.20,24.60 L 174.99,23.87 L 175.78,23.14 L 176.57,22.41 L 177.36,21.68 L 178.15,20.95 L 178.94,20.22 L 179.73,19.49 L 180.52,18.76 L 181.31,18.03 L 182.10,17.30 L 182.89,16.57 L 183.68,15.84 L 184.47,15.11 L 185.26,14.38 L 186.05,13.65 L 186.84,12.92 L 187.63,12.19 L 188.42,11.46 L 189.21,10.73 L 190.00,10.00" fill="none" stroke="#2ca02c" stroke-width="1.5"/>
<path d="M 32.00,156.00 L 32.79,156.00 L 33.58,156.00 L 34.37,156.00 L 35.16,156.00 L 35.95,156.00 L 36.74,156.00 L 37.53,156.00 L 38.32,156.00 L 39.11,156.00 L 39.90,156.00 L 40.69,156.00 L 41.48,156.00 L 42.27,156.00 L 43.06,156.00 L 43.85,156.00 L 44.64,156.00 L 45.43,156.00 L 46.22,156.00 L 47.01,156.00 L 47.80,156.00 L 48.59,156.00 L 49.38,155.99 L 50.17,155.99 L 50.96,155.99 L 51.75,155.99 L 52.54,155.99 L 53.33,155.99 L 54.12,155.99 L 54.91,155.99 L 55.70,155.99 L 56.49,155.99 L 57.28,155.99 L 58.07,155.99 L 58.86,155.99 L 59.65,155.99 L 60.44,155.99 L 61.23,155.99 L 62.02,155.99 L 62.81,155.99 L 63.60,155.99 L 64.39,155.98 L 65.18,155.98 L 65.97,155.98 L 66.76,155.98 L 67.55,155.98 L 68.34,155.98 L 69.13,155.98 L 69.92,155.98 L 70.71,155.98 L 71.50,155.97 L 72.29,155.97 L 73.08,155.97 L 73.87,155.97 L 74.66,155.97 L 75.45,155.97 L 76.24,155.96 L 77.03,155.96 L 77.82,155.96 L 78.61,155.96 L 79.40,155.95 L 80.19,155.95 L 80.98,155.95 L 81.77,155.95 L 82.56,155.94 L 83.35,155.94 L 84.14,155.93 L 84.93,155.93 L 85.72,155.93 L 86.51,155.92 L 87.30,155.92 L 88.09,155.91 L 88.88,155.91 L 89.67,155.90 L 90.46,155.90 L 91.25,155.89 L 92.04,155.88 L 92.83,155.88 L 93.62,155.87 L 94.41,155.86 L 95.20,155.85 L 95.99,155.85 L 96.78,155.84 L 97.57,155.83 L 98.36,155.82 L 99.15,155.81 L 99.94,155.79 L 100.73,155.78 L 101.52,155.77 L 102.31,155.75 L 103.10,155.74 L 103.89,155.72 L 104.68,155.71 L 105.47,155.69 L 106.26,155.67 L 107.05,155.65 L 107.84,155.63 L 108.63,155.61 L 109.42,155.59 L 110.21,155.56 L 111.00,155.54 L 111.79,155.51 L 112.58,155.48 L 113.37,155.45 L 114.16,155.42 L 114.95,155.38 L 115.74,155.35 L 116.53,155.31 L 117.32,155.27 L 118.11,155.22 L 118.90,155.18 L 119.69,155.13 L 120.48,155.08 L 121.27,155.02 L 122.06,154.97 L 122.85,154.91 L 123.64,154.84 L 124.43,154.77 L 125.22,154.70 L 126.01,154.62 L 126.80,154.54 L 127.59,154.45 L 128.38,154.36 L 129.17,154.26 L 129.96,154.16 L 130.75,154.05 L 131.54,153.94 L 132.33,153.82 L 133.12,153.69 L 133.91,153.55 L 134.70,153.40 L 135.49,153.25 L 136.28,153.09 L 137.07,152.91 L 137.86,152.73 L 138.65,152.54 L 139.44,152.33 L 140.23,152.12 L 141.02,151.89 L 141.81,151.64 L 142.60,151.38 L 143.39,151.11 L 144.18,150.82 L 144.97,150.51 L 145.76,150.19 L 146.55,149.84 L 147.34,149.48 L 148.13,149.09 L 148.92,148.68 L 149.71,148.25 L 150.50,147.79 L 151.29,147.30 L 152.08,146.79 L 152.87,146.24 L 153.66,145.66 L 154.45,145.05 L 155.24,144.40 L 156.03,143.72 L 156.82,142.99 L 157.61,142.22 L 158.40,141.40 L 159.19,140.53 L 159.98,139.62 L 160.77,138.65 L 161.56,137.62 L 162.35,136.53 L 163.14,135.38 L 163.93,134.15 L 164.72,132.86 L 165.51,131.49 L 166.30,130.04 L 167.09,128.50 L 167.88,126.87 L 168.67,125.14 L 169.46,123.31 L 170.25,121.38 L 171.04,119.33 L 171.83,117.15 L 172.62,114.85 L 173.41,112.41 L 174.20,109.83 L 174.99,107.10 L 175.78,104.20 L 176.57,101.13 L 177.36,97.88 L 178.15,94.43 L 178.94,90.78 L 179.73,86.92 L 180.52,82.83 L 181.31,78.49 L 182.10,73.90 L 182.89,69.03 L 183.68,63.88 L 184.47,58.42 L 185.26,52.64 L 186.05,46.52 L 186.84,40.03 L 187.63,33.16 L 188.42,25.88 L 189.21,18.17 L 190.00,10.00" fill="none" stroke="#9467bd" stroke-width="1.5"/>
<path d="M 32.00,156.00 L 32.79,154.54 L 33.58,153.09 L 34.37,151.65 L 35.16,150.22 L 35.95,148.79 L 36.74,147.37 L 37.53,145.96 L 38.32,144.55 L 39.11,143.16 L 39.90,141.76 L 40.69,140.38 L 41.48,139.01 L 42.27,137.64 L 43.06,136.28 L 43.85,134.92 L 44.64,133.57 L 45.43,132.23 L 46.22,130.90 L 47.01,129.58 L 47.80,128.26 L 48.59,126.95 L 49.38,125.65 L 50.17,124.35 L 50.96,123.06 L 51.75,121.78 L 52.54,120.51 L 53.33,119.24 L 54.12,117.98 L 54.91,116.73 L 55.70,115.48 L 56.49,114.25 L 57.28,113.02 L 58.07,111.79 L 58.86,110.58 L 59.65,109.37 L 60.44,108.17 L 61.23,106.98 L 62.02,105.79 L 62.81,104.61 L 63.60,103.44 L 64.39,102.28 L 65.18,101.12 L 65.97,99.97 L 66.76,98.83 L 67.55,97.69 L 68.34,96.56 L 69.13,95.44 L 69.92,94.33 L 70.71,93.22 L 71.50,92.12 L 72.29,91.03 L 73.08,89.95 L 73.87,88.87 L 74.66,87.80 L 75.45,86.74 L 76.24,85.69 L 77.03,84.64 L 77.82,83.60 L 78.61,82.57 L 79.40,81.54 L 80.19,80.52 L 80.98,79.51 L 81.77,78.51 L 82.56,77.51 L 83.35,76.52 L 84.14,75.54 L 84.93,74.56 L 85.72,73.60 L 86.51,72.64 L 87.30,71.69 L 88.09,70.74 L 88.88,69.80 L 89.67,68.87 L 90.46,67.95 L 91.25,67.03 L 92.04,66.12 L 92.83,65.22 L 93.62,64.33 L 94.41,63.44 L 95.20,62.56 L 95.99,61.69 L 96.78,60.82 L 97.57,59.96 L 98.36,59.11 L 99.15,58.27 L 99.94,57.44 L 100.73,56.61 L 101.52,55.79 L 102.31,54.97 L 103.10,54.16 L 103.89,53.37 L 104.68,52.57 L 105.47,51.79 L 106.26,51.01 L 107.05,50.24 L 107.84,49.48 L 108.63,48.72 L 109.42,47.97 L 110.21,47.23 L 111.00,46.50 L 111.79,45.77 L 112.58,45.05 L 113.37,44.34 L 114.16,43.64 L 114.95,42.94 L 115.74,42.25 L 116.53,41.57 L 117.32,40.89 L 118.11,40.23 L 118.90,39.56 L 119.69,38.91 L 120.48,38.27 L 121.27,37.63 L 122.06,37.00 L 122.85,36.37 L 123.64,35.75 L 124.43,35.14 L 125.22,34.54 L 126.01,33.95 L 126.80,33.36 L 127.59,32.78 L 128.38,32.21 L 129.17,31.64 L 129.96,31.08 L 130.75,30.53 L 131.54,29.99 L 132.33,29.45 L 133.12,28.92 L 133.91,28.40 L 134.70,27.88 L 135.49,27.38 L 136.28,26.88 L 137.07,26.38 L 137.86,25.90 L 138.65,25.42 L 139.44,24.95 L 140.23,24.49 L 141.02,24.03 L 141.81,23.58 L 142.60,23.14 L 143.39,22.71 L 144.18,22.28 L 144.97,21.86 L 145.76,21.45 L 146.55,21.04 L 147.34,20.64 L 148.13,20.25 L 148.92,19.87 L 149.71,19.49 L 150.50,19.12 L 151.29,18.76 L 152.08,18.41 L 152.87,18.06 L 153.66,17.72 L 154.45,17.39 L 155.24,17.07 L 156.03,16.75 L 156.82,16.44 L 157.61,16.14 L 158.40,15.84 L 159.19,15.55 L 159.98,15.27 L 160.77,15.00 L 161.56,14.73 L 162.35,14.47 L 163.14,14.22 L 163.93,13.97 L 164.72,13.74 L 165.51,13.51 L 166.30,13.28 L 167.09,13.07 L 167.88,12.86 L 168.67,12.66 L 169.46,12.47 L 170.25,12.28 L 171.04,12.10 L 171.83,11.93 L 172.62,11.77 L 173.41,11.61 L 174.20,11.46 L 174.99,11.32 L 175.78,11.18 L 176.57,11.05 L 177.36,10.93 L 178.15,10.82 L 178.94,10.72 L 179.73,10.62 L 180.52,10.53 L 181.31,10.44 L 182.10,10.37 L 182.89,10.30 L 183.68,10.23 L 184.47,10.18 L 185.26,10.13 L 186.05,10.09 L 186.84,10.06 L 187.63,10.03 L 188.42,10.01 L 189.21,10.00 L 190.00,10.00" fill="none" stroke="#ff7f0e" stroke-width="1.5"/>
<line x1="198" y1="18" x2="212" y2="18" stroke="#1f77b4" stroke-width="1.5"/>
<text x="216" y="21">q  quarter sine</text>
<line x1="198" y1="32" x2="212" y2="32" stroke="#d62728" stroke-width="1.5"/>
<text x="216" y="35">h  half sine</text>
<line x1="198" y1="46" x2="212" y2="46" stroke="#2ca02c" stroke-width="1.5"/>
<text x="216" y="49">t  linear</text>
<line x1="198" y1="60" x2="212" y2="60" stroke="#9467bd" stroke-width="1.5"/>
<text x="216" y="63">l  logarithmic</text>
<line x1="198" y1="74" x2="212" y2="74" stroke="#ff7f0e" stroke-width="1.5"/>
<text x="216" y="77">p  inv. parabola</text>
</svg>